<?xml version="1.0" encoding="utf-8"?>
<!-- Generator: Adobe Illustrator 25.4.1, SVG Export Plug-In . SVG Version: 6.00 Build 0)  -->
<svg version="1.1" id="svg2079" xmlns:svg="http://www.w3.org/2000/svg"
	 xmlns="http://www.w3.org/2000/svg" xmlns:xlink="http://www.w3.org/1999/xlink" x="0px" y="0px" viewBox="0 0 682.7 682.7"
	 style="enable-background:new 0 0 682.7 682.7;" xml:space="preserve">
<style type="text/css">
	.st0{clip-path:url(#SVGID_00000135687279848137465680000005733046899859293331_);}
	.st1{fill:none;stroke:#FFFFFF;stroke-width:19.8425;stroke-miterlimit:23.7036;}
</style>
<g id="g2085" transform="matrix(1.3333333,0,0,-1.3333333,0,682.66667)">
	<g id="g2087">
		<g>
			<g>
				<g>
					<defs>
						<rect id="SVGID_1_" x="-369.3" y="-369.1" width="1256.1" height="1256.1"/>
					</defs>
					<clipPath id="SVGID_00000081625153185502239490000008389314944845519796_">
						<use xlink:href="#SVGID_1_"  style="overflow:visible;"/>
					</clipPath>
					<g id="g2089" style="clip-path:url(#SVGID_00000081625153185502239490000008389314944845519796_);">
						<g id="g2095" transform="translate(89.5361,490.5)">
							<path id="path2097" class="st1" d="M-3.2,11.1l115.3-115.3c-14.9-15-38.1-38.1-57.3-57.2c-11.1-11.1-12.1-28.5-2.7-40.9
								c19.9-26.4,49.1-61.4,74.4-86.6c21.5-21.5,49.3-41.8,74.4-59.6c12.1-8.6,28.9-6.6,39.4,3.9c17.7,17.8,38.9,39,56.7,56.8
								l115.3-115.3c0,0-15.3-15.3-55.6-55.6C314.9-500.6,237.9-479,162.1-428C22-334.3-137-122.7-59.6-45.3L-3.2,11.1z"/>
						</g>
					</g>
				</g>
			</g>
		</g>
	</g>
</g>
</svg>
