<svg width="90" height="89" viewBox="0 0 90 89" fill="none" xmlns="http://www.w3.org/2000/svg">
<circle cx="45" cy="44.5" r="44.5" fill="white"/>
<path d="M21.5 68L24.8037 55.9308C22.7651 52.398 21.6939 48.3932 21.6958 44.2865C21.7017 31.4477 32.1494 21 44.9862 21C51.2157 21.002 57.0633 23.4283 61.4617 27.8307C65.8581 32.233 68.2786 38.0845 68.2766 44.3081C68.2708 57.1489 57.8231 67.5966 44.9862 67.5966C41.0892 67.5946 37.2489 66.6174 33.8473 64.7609L21.5 68ZM34.4191 60.5446C37.7013 62.4932 40.8346 63.6603 44.9784 63.6623C55.6474 63.6623 64.3384 54.979 64.3443 44.3042C64.3482 33.6077 55.6983 24.9362 44.9941 24.9323C34.3173 24.9323 25.6321 33.6156 25.6282 44.2885C25.6262 48.6458 26.903 51.9084 29.0474 55.3218L27.091 62.4658L34.4191 60.5446ZM56.7186 49.8443C56.5737 49.6015 56.1859 49.4565 55.6023 49.1648C55.0207 48.873 52.1596 47.4649 51.625 47.271C51.0923 47.0772 50.7046 46.9792 50.3149 47.5628C49.9271 48.1445 48.8109 49.4565 48.4721 49.8443C48.1333 50.232 47.7925 50.281 47.2109 49.9892C46.6293 49.6974 44.7532 49.0845 42.5305 47.1007C40.8013 45.5575 39.6322 43.652 39.2934 43.0685C38.9546 42.4868 39.2581 42.1715 39.548 41.8817C39.8104 41.6213 40.1296 41.2022 40.4214 40.8614C40.7171 40.5246 40.813 40.2818 41.0089 39.892C41.2027 39.5043 41.1068 39.1635 40.9599 38.8718C40.813 38.5819 39.6498 35.7169 39.1661 34.5517C38.6922 33.4178 38.2124 33.5705 37.856 33.5529L36.7397 33.5333C36.352 33.5333 35.7214 33.6783 35.1887 34.2618C34.6561 34.8454 33.1521 36.2515 33.1521 39.1165C33.1521 41.9816 35.2377 44.7487 35.5275 45.1365C35.8193 45.5242 39.6302 51.4031 45.468 53.9235C46.8564 54.5228 47.9414 54.8811 48.7854 55.1494C50.1797 55.592 51.4487 55.5293 52.4514 55.3805C53.5696 55.214 55.8941 53.9725 56.3798 52.6134C56.8655 51.2523 56.8655 50.0871 56.7186 49.8443Z" fill="#21225F"/>
</svg>
